<?xml version="1.0" standalone="no"?>
<!DOCTYPE svg PUBLIC "-//W3C//DTD SVG 20010904//EN"
 "http://www.w3.org/TR/2001/REC-SVG-20010904/DTD/svg10.dtd">
<svg version="1.0" xmlns="http://www.w3.org/2000/svg"
 width="260.000000pt" height="260.000000pt" viewBox="0 0 260.000000 260.000000"
 preserveAspectRatio="xMidYMid meet">
<metadata>
Created by potrace 1.14, written by Peter Selinger 2001-2017
</metadata>
<g transform="translate(0.000000,260.000000) scale(0.100000,-0.100000)"
fill="#000000" stroke="none">
<path d="M790 2361 c0 -19 340 -361 365 -367 11 -3 47 7 79 21 167 74 386 72
539 -5 125 -62 210 -149 268 -273 15 -34 28 -56 29 -48 0 8 -16 48 -36 90 -68
141 -210 255 -370 297 -76 19 -253 20 -327 0 -31 -8 -84 -27 -118 -42 l-60
-27 -185 184 c-101 101 -184 178 -184 170z"/>
<path d="M1367 1836 c-86 -36 -140 -85 -181 -166 -65 -130 -68 -232 -13 -354
34 -75 76 -118 153 -157 62 -31 77 -34 169 -37 96 -4 105 -2 171 28 127 57
199 164 211 310 9 116 -53 257 -144 326 -101 76 -251 97 -366 50z"/>
<path d="M926 1729 c-14 -30 -27 -67 -31 -84 -5 -27 -4 -27 9 6 7 19 23 54 35
78 13 24 20 45 17 48 -3 4 -17 -18 -30 -48z"/>
<path d="M2071 1650 c0 -8 4 -22 9 -30 12 -18 12 -2 0 25 -6 13 -9 15 -9 5z"/>
<path d="M881 1594 c0 -11 3 -14 6 -6 3 7 2 16 -1 19 -3 4 -6 -2 -5 -13z"/>
<path d="M2010 1141 c0 -20 356 -374 372 -369 14 4 42 57 52 98 4 14 -5 1 -18
-27 -14 -29 -28 -53 -33 -53 -4 0 -90 82 -190 182 -101 101 -183 177 -183 169z"/>
<path d="M2451 949 c-7 -22 -11 -43 -8 -45 2 -2 9 14 16 37 7 22 11 43 8 45
-2 2 -9 -14 -16 -37z"/>
<path d="M91 944 c0 -11 3 -14 6 -6 3 7 2 16 -1 19 -3 4 -6 -2 -5 -13z"/>
<path d="M106 895 c8 -37 14 -45 14 -19 0 10 -5 26 -10 34 -8 11 -9 7 -4 -15z"/>
<path d="M125 829 c3 -13 29 -70 56 -125 113 -231 300 -420 527 -534 302 -152
636 -176 956 -69 181 60 385 192 499 322 86 98 68 97 -30 -2 -178 -177 -388
-290 -628 -338 -102 -20 -363 -23 -460 -5 -171 33 -374 121 -501 218 -96 73
-234 218 -289 303 -48 74 -115 207 -115 228 0 6 -5 15 -11 19 -8 4 -9 -1 -4
-17z"/>
</g>
</svg>
